<svg width="16" height="18" viewBox="0 0 16 18" fill="none" xmlns="http://www.w3.org/2000/svg">
<path d="M11.3333 7.33335L7.58325 11.0834M10.4999 8.16669L11.3333 9.00002M10.0833 0.666687H2.99992C2.55789 0.666687 2.13397 0.842282 1.82141 1.15484C1.50885 1.4674 1.33325 1.89133 1.33325 2.33335V15.6667C1.33325 16.1087 1.50885 16.5326 1.82141 16.8452C2.13397 17.1578 2.55789 17.3334 2.99992 17.3334H12.9999C13.4419 17.3334 13.8659 17.1578 14.1784 16.8452C14.491 16.5326 14.6666 16.1087 14.6666 15.6667V5.25002L10.0833 0.666687ZM7.99992 12.3334C7.99992 13.2538 7.25373 14 6.33325 14C5.41278 14 4.66659 13.2538 4.66659 12.3334C4.66659 11.4129 5.41278 10.6667 6.33325 10.6667C7.25373 10.6667 7.99992 11.4129 7.99992 12.3334Z" stroke="#09090B" stroke-width="1.33" stroke-linecap="round" stroke-linejoin="round"/>
</svg>
