<svg width="16" height="16" viewBox="0 0 16 16" fill="none" xmlns="http://www.w3.org/2000/svg">
<path d="M8.66667 3.33325V4.66659M8.66667 11.3333V12.6666M8.66667 7.33325V8.66659M2 4.66659V5.99992C2.53043 5.99992 3.03914 6.21063 3.41421 6.5857C3.78929 6.96078 4 7.46949 4 7.99992C4 8.53035 3.78929 9.03906 3.41421 9.41413C3.03914 9.7892 2.53043 9.99992 2 9.99992V11.3333C2 12.0666 2.6 12.6666 3.33333 12.6666H12.6667C13.0203 12.6666 13.3594 12.5261 13.6095 12.2761C13.8595 12.026 14 11.6869 14 11.3333V9.99992C13.4696 9.99992 12.9609 9.7892 12.5858 9.41413C12.2107 9.03906 12 8.53035 12 7.99992C12 7.46949 12.2107 6.96078 12.5858 6.5857C12.9609 6.21063 13.4696 5.99992 14 5.99992V4.66659C14 4.31296 13.8595 3.97382 13.6095 3.72378C13.3594 3.47373 13.0203 3.33325 12.6667 3.33325H3.33333C2.97971 3.33325 2.64057 3.47373 2.39052 3.72378C2.14048 3.97382 2 4.31296 2 4.66659Z" stroke="#09090B" stroke-width="1.33" stroke-linecap="round" stroke-linejoin="round"/>
</svg>
